<?xml version="1.0" encoding="utf-8"?>
<!-- Generator: Adobe Illustrator 22.0.0, SVG Export Plug-In . SVG Version: 6.00 Build 0)  -->
<svg version="1.1" id="Layer_1" xmlns="http://www.w3.org/2000/svg" xmlns:xlink="http://www.w3.org/1999/xlink" x="0px" y="0px"
	 viewBox="0 0 308.9 294.9" style="enable-background:new 0 0 308.9 294.9;" xml:space="preserve">
<style type="text/css">
	.st0{fill:#F16050;}
	.st1{fill:#EFECE8;}
	.st2{fill:#5BC4BE;}
</style>
<g>
	<g>
		<path class="st0" d="M248.9,237.6c-6.3,0-11.7-2.4-16.4-7.4c-4.3-4.4-8.7-8.9-13.1-13.1c-6-6-12.2-12.1-18.1-18.5
			c-4.4-4.7-9.7-7.3-16-7.7c-0.5,0-1,0-1.5,0c-5.2,0-9.7,1.5-13.6,4.5c-1.5,1.2-2.9,2.3-4.8,2.3c-3.6,0-4.6-3.2-5.4-5.5
			c-3.5-11-12.1-17.6-22.9-17.6c-0.4,0-0.7,0-1.1,0c-0.3,0-0.5,0-0.7,0c-4.5,0-7.2-2.4-7.8-7c-1.1-8-5.2-13.9-12.6-18.1
			c-1.9-1.1-4.2-1.6-6.8-2.2c-1.2-0.3-2.5-0.6-3.9-1l-4-1.1l1.3-3.9c2.2-6.9,2.1-13.2-0.5-19.1c-2.1-4.8-5.1-8.3-9.2-10.7
			c-4-2.3-8.2-3.5-12.5-3.5c-1.6,0-3.3,0.2-4.9,0.5c-4.7,1-8.5,2.9-11.4,5.8c-5.3,5.4-10.7,10.9-15.9,16.3c-2.8,2.9-5.5,5.7-8.3,8.6
			c-2.4,2.5-4.3,4.4-7,4.4c0,0,0,0,0,0c-4,0-5.3-3.8-6.6-7.5c-6.8-19.5-6.7-39.2,0.1-58.4c5.3-14.8,14.4-27.6,27.1-38.1
			c2.8-2.3,5.8-4,8.7-5.6c1.4-0.8,2.7-1.5,4-2.3c7.9-4.9,16.3-8.2,24.9-9.7c6.6-1.1,12-1.7,17.2-1.7c3.3,0,6.3,0.2,9.4,0.7
			c10,1.4,18,3.6,25.2,6.9c1.9,0.9,4.3,1.9,4.7,4.6c0.4,2.7-1.4,4.4-2.9,5.8c-9.7,9-19.1,18.6-28.3,27.8
			c-5.2,5.2-10.5,10.6-15.9,15.9c5.4,5.4,10.9,10.7,15,14.8c0.7,0.7,1.5,1.5,2.2,2.2c2.5,2.5,4.8,5,7.7,6.2
			c3.3,1.4,6.9,2.1,10.5,2.1c5.8,0,11.3-2,15.4-5.6c1.5-1.3,3-2.7,4.3-4.1c1.8-2.1,3.8-3.1,6-3.1c1.8,0,3.5,0.7,5.2,2.1
			c4.1,3.4,8.9,6.4,14.6,9c9.3,4.3,19.8,6.5,32,6.5c3.2,0,6.6-0.1,10.2-0.4c1.8-1,3.6-1.6,5.3-1.6c4.2,0,7.1,2.8,9.6,5.2l0.3,0.3
			c7.7,7.3,15.3,15,22.7,22.4c5.3,5.3,10.7,10.7,16.1,16c5.1,5,7.6,11.2,7,17.5c-0.6,6.4-4.3,12.1-10.3,16c-2.8,1.8-6.1,2.8-9.6,2.8
			c-5.3,0-10.6-2.2-14.5-5.9c-5.3-5.1-10.5-10.5-15.5-15.7c-3-3.1-6-6.3-9-9.3c-1.6-1.7-3.3-3.2-5.2-4.9c-1-0.9-2.1-1.9-3.1-2.9
			c-0.2,0.2-0.4,0.4-0.5,0.6c-0.6,0.6-1.3,1.3-1.7,1.8c0.5,0.5,1.2,1.2,1.8,1.9l0.1,0.1c3.1,3.1,6.1,6.2,9.2,9.3
			c3.9,3.9,7.8,7.9,11.7,11.8l2.1,2.1c6.7,6.7,13.7,13.6,20.7,20.3c5.2,5,10.4,11.3,9.1,21.1c-1.1,8.8-9.2,16.5-18,17.1
			C250.1,237.5,249.5,237.6,248.9,237.6z"/>
		<path class="st1" d="M107.3,24.2c2.9,0,5.8,0.2,8.8,0.6c8.4,1.2,16.4,3.1,24.1,6.6c3.1,1.4,3.1,1.6,0.7,3.9
			c-15.5,14.4-30,29.8-45.2,44.6c-1.9,1.8-0.7,3.3,0.6,4.6c5.1,5.1,10.2,10.1,15.3,15.1c3.5,3.4,6.5,7.3,11.1,9.2
			c3.7,1.6,7.9,2.4,12,2.4c6.4,0,12.9-2,18-6.5c1.6-1.4,3.2-2.9,4.6-4.5c1-1.1,1.9-1.7,3-1.7c0.8,0,1.7,0.4,2.6,1.2
			c4.7,3.9,9.9,7,15.5,9.6c10.8,5,22.1,6.8,33.7,6.8c3.5,0,7.1-0.2,10.7-0.5c0.3,0,0.7,0,0.9-0.1c1.5-1,2.8-1.4,4-1.4
			c2.7,0,4.9,2.2,7.2,4.4c13.2,12.5,25.7,25.7,38.7,38.4c8.8,8.6,7.5,20.6-2.8,27.4c-2.2,1.4-4.8,2.1-7.4,2.1
			c-4.1,0-8.5-1.7-11.8-4.8c-8.4-8-16.3-16.6-24.4-24.9c-3-3-6.2-5.8-9.3-8.7c-0.7-0.7-1.3-1-2-1c-0.6,0-1.3,0.3-1.9,1
			c-0.5,0.5-0.9,1-1.4,1.5c-4.6,4.7-4.5,4.6,0.2,9.4c7,7,13.9,14.1,21,21.1c7.6,7.5,15.1,15.1,22.9,22.4c5.1,4.9,8.9,10,7.9,17.7
			c-0.9,6.9-7.3,13.1-14.3,13.6c-0.5,0-1,0-1.5,0c-5.4,0-9.7-2.1-13.6-6.2c-10.2-10.6-21.1-20.7-31.1-31.6c-5.1-5.5-11.4-8.6-18.7-9
			c-0.6,0-1.1,0-1.7,0c-5.7,0-11.3,1.6-16.1,5.4c-1.2,0.9-1.9,1.4-2.4,1.4c-0.6,0-0.9-0.9-1.5-2.8c-3.9-12.2-13.7-20.4-26.7-20.4
			c-0.4,0-0.8,0-1.3,0c-0.2,0-0.4,0-0.6,0c-2.3,0-3.5-0.7-3.8-3.5c-1.3-9.4-6.3-16.4-14.6-21c-3.4-1.9-7.4-2.4-11.6-3.6
			c2.3-7.4,2.5-14.7-0.6-21.9c-2.3-5.3-5.8-9.6-10.9-12.6c-4.6-2.6-9.4-4.1-14.5-4.1c-1.9,0-3.8,0.2-5.7,0.6
			c-5,1.1-9.7,3.2-13.4,6.9c-8.1,8.2-16.1,16.6-24.2,24.9c-2,2.1-3.2,3.2-4.1,3.2c-1,0-1.7-1.5-2.8-4.8c-6.4-18.6-6.5-37.2,0.1-55.8
			c5.1-14.5,14-26.6,25.8-36.3c3.7-3.1,8.1-5.1,12.2-7.6c7.3-4.5,15.1-7.7,23.5-9.1C96.3,24.9,101.8,24.2,107.3,24.2 M107.3,16.2
			c-5.4,0-11,0.6-17.8,1.7c-9.1,1.6-18,5-26.3,10.2c-1.2,0.8-2.5,1.5-3.8,2.2c-3.1,1.7-6.2,3.5-9.2,6C36.8,47.3,27.2,60.7,21.8,76.2
			c-7.1,20.1-7.2,40.7-0.1,61c1.3,3.8,3.5,10.1,10.4,10.1c4.4,0,7.1-2.9,9.8-5.6c2.8-2.8,5.5-5.7,8.3-8.5
			c5.2-5.4,10.5-10.9,15.9-16.3c2.3-2.3,5.4-3.9,9.3-4.7c1.4-0.3,2.7-0.4,4.1-0.4c3.5,0,7,1,10.4,3c3.3,1.9,5.8,4.8,7.5,8.8
			c2.1,5,2.3,10.3,0.4,16.3l-2.5,7.9l8,2.2c1.4,0.4,2.8,0.7,4.1,1c2.3,0.5,4.4,1,5.8,1.8c6.2,3.5,9.7,8.4,10.6,15.1
			c0.9,6.5,5.3,10.5,11.8,10.5c0.3,0,0.6,0,0.9,0c0.3,0,0.6,0,0.9,0c9.1,0,16.1,5.4,19.1,14.9c0.4,1.1,0.7,2.2,1.2,3.3
			c1.6,3.2,4.6,5.1,7.9,5.1c3.3,0,5.5-1.7,7.3-3.1c3.1-2.4,6.9-3.7,11.1-3.7c0.4,0,0.8,0,1.3,0c5.1,0.3,9.6,2.4,13.2,6.4
			c5.9,6.4,12.2,12.6,18.2,18.6c4.3,4.3,8.8,8.7,13,13.1c5.6,5.8,11.9,8.6,19.3,8.6c0.7,0,1.3,0,2-0.1c10.8-0.7,20.3-9.8,21.7-20.6
			c1.5-11.6-4.8-19.1-10.4-24.5c-0.9-0.8-1.7-1.6-2.6-2.5c1.3,0.2,2.5,0.3,3.8,0.3c4.3,0,8.4-1.2,11.8-3.4
			c7.1-4.6,11.4-11.4,12.1-19c0.7-7.6-2.2-14.9-8.1-20.8c-5.4-5.3-10.8-10.7-16.1-16c-7.4-7.4-15-15.1-22.8-22.5l-0.3-0.3
			c-2.8-2.7-6.6-6.3-12.4-6.3c-2.2,0-4.4,0.5-6.5,1.6c-3.2,0.2-6.1,0.4-9,0.4c-11.6,0-21.5-2-30.3-6.1c-5.4-2.5-9.9-5.3-13.7-8.5
			c-2.4-2-5-3-7.7-3c-2.3,0-5.8,0.8-9,4.5c-1.1,1.3-2.5,2.6-3.9,3.8c-4.3,3.8-9.3,4.6-12.7,4.6c-3,0-6.1-0.6-8.9-1.8
			c-2.2-0.9-4.1-2.9-6.4-5.3c-0.7-0.7-1.5-1.5-2.3-2.3c-3.4-3.3-7.7-7.5-12.1-11.9c4.4-4.4,8.8-8.8,13.1-13.1
			c9.1-9.2,18.6-18.7,28.2-27.7c1.6-1.5,4.9-4.6,4.1-9.4c-0.8-4.8-4.8-6.6-7-7.6c-7.5-3.4-15.9-5.7-26.2-7.2
			C114.1,16.4,110.7,16.2,107.3,16.2L107.3,16.2z"/>
	</g>
	<g>
		<path class="st2" d="M215.8,108.9c-0.7,0-1.4,0-2-0.1c-21-0.4-36.3-5.9-49.4-17.9c-0.4-0.4-0.8-0.7-1.2-1.1c-1-0.9-2-1.8-3.1-2.8
			c-1.1,1.2-2.3,2.3-3.5,3.5c-2.2,2.2-4.4,4.4-6.6,6.7c-4.1,4.4-9.6,6.8-15.3,6.8c-4.9,0-9.6-1.9-13.4-5.2c-2-1.8-3.9-3.7-5.8-5.6
			c-2-2-4-4-6-5.8c-1.8-1.6-2.7-3.3-2.7-5.2c-0.1-2.9,1.9-4.9,3-6c4-4,8-8,11.9-11.9c5.7-5.6,11.6-11.4,17.3-17.3
			c11.9-12.2,26.4-20.3,43.2-24.1c6.1-1.4,12.4-2.1,18.7-2.1c6,0,12.1,0.7,18.1,1.9c12.9,2.8,24.7,8.3,35,16.4
			c2.9,2.3,5.4,4.8,7.8,7.3c2.1,2.1,4.1,4.2,6.2,6c2.2,1.8,3.3,4.2,4.2,6.1c0.4,0.9,0.9,1.8,1.3,2.5c1.5,2.2,1.5,5.4,0,8.4
			c-7.9,15.6-19.8,26.9-35.3,33.7C233.4,105.2,223.7,108.9,215.8,108.9z"/>
		<path class="st1" d="M201.1,24.7c5.8,0,11.5,0.6,17.2,1.8c12.2,2.6,23.4,7.8,33.4,15.7c5.1,4,9,9.1,14,13.2c2.4,2,3.1,5.2,4.8,7.7
			c0.8,1.1,0.4,2.9-0.3,4.3c-7.3,14.5-18.4,25.4-33.3,31.8c-7.5,3.2-15.4,5.6-21.1,5.6c-0.6,0-1.2,0-1.8-0.1
			c-20-0.4-34.6-5.6-46.9-16.8c-1.7-1.5-3.4-3-5-4.7c-0.7-0.7-1.3-1-1.9-1c-0.6,0-1.2,0.3-1.9,1c-3.7,3.7-7.5,7.4-11.1,11.1
			c-3.4,3.6-7.9,5.5-12.4,5.5c-3.8,0-7.5-1.4-10.7-4.2c-4-3.7-7.7-7.8-11.8-11.4c-2.5-2.3-1.1-3.9,0.4-5.4
			c9.7-9.8,19.6-19.3,29.2-29.2c11.5-11.8,25.2-19.4,41.2-23C189.2,25.4,195.1,24.7,201.1,24.7 M201.1,16.7v8V16.7L201.1,16.7
			c-6.6,0-13.2,0.8-19.6,2.2c-17.5,4-32.7,12.5-45.1,25.2c-5.7,5.8-11.5,11.6-17.2,17.2c-3.9,3.9-8,7.9-12,11.9
			c-1.3,1.3-4.3,4.3-4.1,8.9c0.1,2.1,0.8,5.2,4.1,8.1c2,1.7,3.8,3.6,5.8,5.6c1.9,1.9,3.8,3.8,5.9,5.7c4.5,4,10.2,6.3,16,6.3
			c6.8,0,13.2-2.8,18.2-8c2.1-2.2,4.2-4.3,6.5-6.6c0.2-0.2,0.5-0.5,0.7-0.7c0.1,0.1,0.2,0.2,0.3,0.3c0.4,0.3,0.8,0.7,1.2,1
			c13.7,12.4,30.1,18.4,51.9,18.9c0.7,0.1,1.5,0.1,2.2,0.1c8.6,0,18.9-3.9,24.3-6.2c16.4-7.1,28.9-19.1,37.3-35.5
			c2.2-4.4,2.1-9-0.3-12.5c-0.3-0.4-0.6-1.2-1-1.9c-1-2.1-2.4-5-5.3-7.4c-2-1.7-3.9-3.6-5.9-5.7c-2.5-2.6-5.1-5.2-8.2-7.7
			c-10.9-8.5-23.2-14.3-36.7-17.2C213.7,17.4,207.4,16.7,201.1,16.7L201.1,16.7z"/>
	</g>
	<g>
		<path class="st2" d="M37.1,193.1c-7.9,0-15.2-6.6-17.4-12.8c-3-8.1-1.3-16.4,4.5-22.1c5.1-5.1,10.2-10.2,15.2-15.3
			c8.2-8.3,16.5-16.5,24.7-24.7c4.4-4.3,9.8-6.7,15.5-6.7c5.7,0,11,2.5,15,7c7.4,8.4,7,19.7-1.1,28.1c-5.2,5.4-10.7,10.8-16,15.9
			c-3.1,3-6.3,6.2-9.5,9.3c-2.8,2.8-5.6,5.7-8.3,8.5c-1.7,1.8-3.4,3.6-5.2,5.3c-3.4,3.5-8.2,7.4-15.6,7.4c-0.1,0-0.2,0-0.3,0
			C38,193.1,37.5,193.1,37.1,193.1z"/>
		<path class="st1" d="M79.5,115.5c4.3,0,8.5,1.8,12,5.7c5.5,6.2,6.2,15.2-1,22.6c-8.3,8.6-17,16.8-25.4,25.2
			c-4.6,4.6-9,9.2-13.5,13.9c-3.5,3.5-7.3,6.2-12.8,6.2c-0.2,0-0.4,0-0.5,0c-0.4,0.1-0.8,0.1-1.2,0.1c-5.7,0-11.8-5.2-13.7-10.2
			c-2.3-6.2-1.4-12.9,3.5-17.9c13.3-13.3,26.6-26.7,39.9-40C70.4,117.5,75,115.5,79.5,115.5 M79.5,107.5L79.5,107.5
			c-6.7,0-13.2,2.8-18.3,7.9c-8.2,8.2-16.5,16.5-24.6,24.6c-5.1,5.1-10.2,10.3-15.4,15.4c-6.9,6.9-8.9,16.7-5.4,26.3
			c2.8,7.6,11.5,15.4,21.2,15.4c0.5,0,1,0,1.5-0.1c0.1,0,0.1,0,0.2,0c9,0,14.8-4.9,18.5-8.6c1.7-1.8,3.5-3.6,5.2-5.4
			c2.7-2.8,5.5-5.7,8.3-8.4c3.1-3.1,6.3-6.3,9.5-9.3c5.3-5.2,10.8-10.5,16.1-16c9.5-9.8,10-23.6,1.2-33.5
			C92.7,110.5,86.3,107.5,79.5,107.5L79.5,107.5z"/>
	</g>
	<g>
		<path class="st2" d="M96.3,258.9c-6.6,0-12.8-3.1-16.6-8.2c-5.7-7.9-4.6-19.5,2.5-26.6l1.9-1.9c8.3-8.2,17-16.7,25.2-25.3
			c3.8-3.9,7.7-7.7,11.6-11.4l1.6-1.5c4.3-4.2,9.4-6.4,14.7-6.4c8,0,15.3,5,19.2,13.2c0.9,1.9,0.9,3.8,0.9,5.3c0,0.5,0,1,0,1.4
			c0.5,5.4-1.4,10.3-5.5,14.5c-4.9,4.9-9.8,9.8-14.7,14.7l-2.6,2.6c-2.5,2.5-5,5-7.5,7.4c-5.2,5.2-10.7,10.6-15.9,16
			C107.4,256.7,102,258.9,96.3,258.9z"/>
		<path class="st1" d="M137.2,181.6c6.5,0,12.5,4.3,15.6,10.9c0.7,1.5,0.4,3.5,0.5,5.3c0.4,4.5-1.3,8.2-4.4,11.3
			c-5.7,5.8-11.5,11.6-17.2,17.3c-7.8,7.8-15.7,15.6-23.4,23.5c-3.2,3.3-7.6,4.9-12,4.9c-5.1,0-10.1-2.2-13.3-6.6
			c-4.4-6-3.7-15.6,2.1-21.4c9.1-9,18.3-18,27.2-27.3c4.2-4.4,8.6-8.6,13-12.8C129.1,183.2,133.3,181.6,137.2,181.6 M137.2,173.6
			L137.2,173.6c-6.3,0-12.3,2.6-17.4,7.5l-1.5,1.5c-3.9,3.7-7.9,7.6-11.7,11.6c-8.2,8.6-16.8,17.1-25.1,25.3l-1.9,1.9
			c-8.5,8.4-9.8,22.3-3,31.8c4.5,6.2,11.9,9.9,19.8,9.9c6.7,0,13.2-2.7,17.7-7.4c5.2-5.4,10.6-10.7,15.8-16c2.5-2.5,5-5,7.5-7.5
			l2.6-2.6c4.8-4.8,9.8-9.8,14.7-14.8c4.9-5,7.2-11.1,6.7-17.6c0-0.2,0-0.6,0-1c0-1.7,0-4.4-1.2-7
			C155.5,179.6,146.7,173.6,137.2,173.6L137.2,173.6z"/>
	</g>
	<g>
		<path class="st2" d="M143.3,275.8c-5.7,0-11.5-2.7-15.5-7.2c-3.5-4-5.2-8.8-4.8-13.6c-0.6-8.1,4.8-13.4,8.4-16.9
			c3.5-3.5,7.1-7,10.5-10.5c2.7-2.7,5.4-5.4,8.1-8.1c1.7-1.7,3.5-3.5,5.2-5.2c5.1-5.2,10.5-10.5,16-15.5c3.5-3.1,7.7-4.8,12.2-4.8
			c3.2,0,6.5,0.8,9.8,2.5c6.9,3.4,10.7,9.4,10.9,17.4c0.2,6.2-2.1,11.4-7.2,16.3c-5.3,5.1-10.5,10.4-15.6,15.5
			c-2.2,2.2-4.5,4.5-6.7,6.7c-1.3,1.2-2.5,2.5-3.8,3.7c-2.6,2.6-5.4,5.3-8,8c-0.5,0.5-1,1.1-1.5,1.6c-2.4,2.6-4.9,5.2-8.3,7.3
			C150,274.8,146.7,275.8,143.3,275.8z"/>
		<path class="st1" d="M183.4,198c2.7,0,5.4,0.7,8,2c5.5,2.7,8.5,7.4,8.6,13.9c0.1,5.5-2.1,9.6-5.9,13.3
			c-7.5,7.3-14.9,14.8-22.4,22.3c-3.9,3.9-7.9,7.8-11.8,11.8c-2.9,3-5.5,6.1-9.1,8.3c-2.4,1.5-5,2.1-7.5,2.1
			c-8.9,0-17.3-8.1-16.3-16.7c-0.6-6,3.1-10.1,7.2-14.1c6.2-6.1,12.3-12.4,18.5-18.6c7-6.9,13.8-14,21.1-20.6
			C176.7,199.2,180,198,183.4,198 M183.4,190L183.4,190c-5.5,0-10.7,2-14.9,5.8c-5.6,5.1-11,10.5-16.2,15.7
			c-1.7,1.7-3.5,3.5-5.2,5.2c-2.7,2.7-5.4,5.4-8.1,8.1c-3.4,3.4-6.9,7-10.5,10.5c-3.8,3.8-10.2,10-9.6,19.8
			c-0.4,5.8,1.6,11.5,5.8,16.3c4.7,5.3,11.7,8.5,18.5,8.5c4.1,0,8.2-1.2,11.7-3.3c3.8-2.4,6.7-5.4,9.1-8c0.5-0.5,1-1.1,1.5-1.6
			c2.6-2.7,5.3-5.4,7.9-8c1.3-1.2,2.5-2.5,3.8-3.7c2.2-2.2,4.5-4.5,6.7-6.7c5.1-5.1,10.4-10.4,15.6-15.5c5.8-5.6,8.5-11.9,8.4-19.3
			c-0.2-9.4-4.9-16.8-13.1-20.8C191.1,191,187.2,190,183.4,190L183.4,190z"/>
	</g>
	<g>
		<path class="st2" d="M63.4,231.7c-3.9,0-7.7-1-10.5-2.9c-2.6-1.8-10.6-7-9.6-17.4c-0.9-6.7,2.9-11.5,5.9-14.6
			c6.1-6.2,12.3-12.5,18.4-18.5c2.4-2.4,4.8-4.8,7.2-7.2c1.4-1.4,2.9-2.9,4.4-4.3c3.2-3.2,6.6-6.5,9.8-9.8c4.4-4.6,9.6-6.9,15.3-6.9
			c1,0,2.1,0.1,3.1,0.2c6.6,1,14.5,6.8,16.3,14.9c0.7,3.3,1.5,6.9-0.2,11.2c-1.1,2.9-3,4.7-4.6,6.4l-0.4,0.4
			c-9.2,9.3-18.7,18.8-27.8,27.9l-1.4,1.4c-4.6,4.6-9.4,9.3-13.6,14.4C73,229.9,68.6,231.7,63.4,231.7z"/>
		<path class="st1" d="M104.2,154c0.8,0,1.7,0.1,2.6,0.2c5.3,0.8,11.6,5.7,12.9,11.8c0.7,3.1,1.2,5.8,0,8.9
			c-0.9,2.3-2.5,3.8-4.1,5.4c-9.5,9.6-19,19-28.5,28.5c-5,5-10,9.9-14.5,15.4c-1.9,2.3-5.5,3.4-9.1,3.4c-3,0-6-0.8-8.3-2.3
			c-5-3.3-8.6-7.5-7.8-14.2c-0.9-4.8,1.6-8.5,4.7-11.7c8.4-8.6,17-17.1,25.6-25.6c4.7-4.7,9.5-9.4,14.2-14.2
			C95.3,156.1,99.4,154,104.2,154 M104.2,146L104.2,146c-6.8,0-12.9,2.7-18.2,8.1c-3.2,3.3-6.5,6.6-9.7,9.8
			c-1.5,1.4-2.9,2.9-4.4,4.3c-2.4,2.4-4.8,4.8-7.2,7.2c-6.1,6-12.3,12.3-18.4,18.5c-2,2.1-8.1,8.3-7,17.4
			c-0.6,8.3,3.2,15.2,11.4,20.7c3.5,2.3,8,3.6,12.7,3.6c6.4,0,12-2.3,15.3-6.3c4.1-4.9,8.5-9.4,13.3-14.1l0.7-0.7l0.5-0.5
			c9.2-9.2,18.8-18.7,28.1-28.1l0.3-0.4c1.7-1.7,4-4.1,5.5-7.7c2.1-5.4,1.1-10.1,0.4-13.6c-2.2-10.2-11.7-16.9-19.6-18.1
			C106.6,146.1,105.4,146,104.2,146L104.2,146z"/>
	</g>
	<g>
		<path class="st2" d="M274.7,145c-2.3,0-3.9-1.5-5.4-2.9l-26.8-26.9c-1.7-1.7-3.3-3.3-3-5.9c0.4-2.5,2.4-3.6,4.4-4.7
			c11.1-6,20.5-14.5,28.1-25.3l0.2-0.2c0.6-0.8,2-3.1,4.9-3.1c0.2,0,0.5,0,0.7,0.1c1.2,0.2,4,1,5.1,5c2.2,7.8,4.3,16.9,3.9,25.3
			c0.1,11.9-2,22.9-6.4,33.6C279.7,141.6,278.3,145,274.7,145z"/>
		<path class="st1" d="M277.1,80c0.1,0,0.1,0,0.2,0c1,0.1,1.5,1.1,1.8,2.1c2.3,8.3,4.2,16.6,3.7,24.2c0.2,11.9-2,22.2-6.1,32.2
			c-0.7,1.7-1.3,2.6-2,2.6c-0.6,0-1.4-0.6-2.6-1.8c-8.9-9-17.9-17.9-26.8-26.9c-2.5-2.5-2.6-2.6,0.5-4.3c12-6.4,21.7-15.4,29.5-26.5
			C275.8,80.9,276.3,80,277.1,80 M277.1,72L277.1,72c-3.3,0-6.1,1.7-8.2,4.9l-0.1,0.1c-7.2,10.2-16.1,18.3-26.7,24
			c-2.2,1.2-5.8,3.1-6.5,7.7c-0.7,4.5,2.2,7.4,4.1,9.3l12.7,12.7c4.7,4.7,9.4,9.4,14.1,14.1c1.4,1.4,4.1,4.1,8.2,4.1
			c4.2,0,7.3-2.5,9.4-7.5c4.7-11.2,6.9-22.7,6.7-35.1c0.5-9-1.8-18.4-4-26.5c-1.2-4.4-4.4-7.3-8.4-7.9C278,72,277.5,72,277.1,72
			L277.1,72z"/>
	</g>
	<g>
		<path class="st0" d="M206.5,257.7c-0.9,0-1.8,0-2.8-0.1c-6.4-0.6-10.5-4.4-13.1-7.3c-1.6-1.8-3.7-5.4,0.3-9.4
			c1.1-1.2,2.3-2.3,3.5-3.4c2.9-2.9,5.7-5.6,8.1-8.6c2.1-2.6,3.2-4.8,3.8-7.1c0.3-1.2,0.8-2.1,1.3-2.9c0.2-0.3,0.3-0.6,0.5-0.9
			l2.5-4.8l3.9,3.7c0.8,0.8,1.6,1.5,2.4,2.3c2.5,2.3,5.1,4.6,7,7.7c4.2,7.1,4,14.9-0.6,22C219.5,254.7,213.7,257.7,206.5,257.7z"/>
		<path class="st1" d="M211.7,219.9c3.2,3.1,6.6,5.6,8.8,9.2c3.6,5.9,3.2,12.1-0.6,17.8c-3.2,4.9-7.9,6.9-13.4,6.9
			c-0.8,0-1.6,0-2.4-0.1c-4.4-0.4-7.6-2.8-10.5-6c-1.5-1.6-1.2-2.6,0.2-3.9c4-4.1,8.3-7.9,11.9-12.4c2.1-2.6,3.7-5.3,4.5-8.6
			C210.4,221.8,211.1,221,211.7,219.9 M209.5,206.7l-4.9,9.5c-0.1,0.2-0.3,0.5-0.4,0.7c-0.5,0.9-1.3,2.2-1.7,4
			c-0.4,1.7-1.4,3.4-3.1,5.5c-2.2,2.8-4.9,5.5-7.8,8.2c-1.2,1.1-2.4,2.3-3.5,3.5c-4.5,4.6-4.7,10.3-0.4,14.9c3,3.3,7.9,7.8,15.6,8.6
			c1.1,0.1,2.2,0.2,3.2,0.2c8.6,0,15.6-3.7,20.1-10.6c5.5-8.5,5.8-17.8,0.7-26.3c-2.2-3.6-5.1-6.3-7.7-8.6c-0.8-0.7-1.6-1.4-2.3-2.2
			L209.5,206.7L209.5,206.7z"/>
	</g>
	<g>
		<path class="st0" d="M169.3,278c-1.4,0-2.6-0.3-3.8-0.8c-2-0.9-3.3-2.2-3.6-3.9c-0.2-1.2-0.1-3,1.7-4.9c0.9-0.9,1.8-1.9,2.7-2.8
			c1.6-1.7,3.2-3.3,4.8-5c2.7-2.7,5.1-5.1,7.3-7.3c0.1-0.1,0.2-0.2,0.3-0.3c0.7-0.8,2.3-2.6,4.9-2.6c0.9,0,1.7,0.2,2.5,0.6
			c3.1,1.5,4.8,4.5,4.4,7.6c-0.8,7.8-6.2,16.9-16,18.5c-0.4,0.1-0.9,0.2-1.3,0.3C172,277.7,170.7,278,169.3,278z"/>
		<path class="st1" d="M183.5,254.5c0.2,0,0.5,0.1,0.8,0.2c1.6,0.7,2.4,2.1,2.1,3.5c-0.6,5.9-4.7,13.8-12.7,15.1
			c-1.5,0.2-2.9,0.7-4.4,0.7c-0.7,0-1.5-0.1-2.3-0.5c-1.4-0.6-1.7-1.2-0.6-2.3c2.5-2.6,4.9-5.2,7.4-7.7c2.4-2.4,4.8-4.8,7.2-7.2
			C181.8,255.6,182.4,254.5,183.5,254.5 M183.5,246.5L183.5,246.5c-4.4,0-6.9,2.9-7.9,4c0,0-0.1,0.1-0.1,0.1
			c-2.2,2.2-4.6,4.5-7.3,7.3c-1.6,1.7-3.3,3.4-4.8,5c-0.9,0.9-1.8,1.8-2.7,2.8c-3.2,3.3-3.1,6.7-2.7,8.4c0.4,2.1,1.8,5,6,6.8
			c1.7,0.7,3.5,1.1,5.4,1.1c1.8,0,3.3-0.3,4.6-0.6c0.4-0.1,0.8-0.2,1.1-0.2c11.9-1.9,18.4-12.7,19.4-22c0.7-4.8-2-9.5-6.6-11.7
			C186.4,246.8,184.9,246.5,183.5,246.5L183.5,246.5z"/>
	</g>
</g>
</svg>
